<svg xmlns="http://www.w3.org/2000/svg" width="20" height="21" viewBox="0 0 20 21" fill="none">
    <path d="M14.3 4.43327C14.3 5.0501 13.951 5.66827 13.2667 6.15708C12.5836 6.64501 11.6074 6.9666 10.5 6.9666C9.39254 6.9666 8.41637 6.64501 7.73326 6.15708C7.04894 5.66827 6.69998 5.0501 6.69998 4.43327C6.69998 3.81644 7.04894 3.19826 7.73326 2.70946C8.41637 2.22153 9.39254 1.89993 10.5 1.89993C11.6074 1.89993 12.5836 2.22153 13.2667 2.70946C13.951 3.19826 14.3 3.81644 14.3 4.43327Z" stroke="#00963D" stroke-width="1.26667"/>
    <path d="M9.23333 9.49992C9.23333 10.1167 8.88438 10.7349 8.20006 11.2237C7.51695 11.7117 6.54078 12.0333 5.43333 12.0333C4.32588 12.0333 3.34972 11.7117 2.66661 11.2237C1.98229 10.7349 1.63333 10.1167 1.63333 9.49992C1.63333 8.88309 1.98229 8.26491 2.66661 7.77611C3.34972 7.28818 4.32588 6.96659 5.43333 6.96659C6.54078 6.96659 7.51695 7.28818 8.20006 7.77611C8.88438 8.26491 9.23333 8.88309 9.23333 9.49992Z" stroke="#00963D" stroke-width="1.26667"/>
    <path d="M19.3666 9.49992C19.3666 10.1167 19.0177 10.7349 18.3334 11.2237C17.6502 11.7117 16.6741 12.0333 15.5666 12.0333C14.4592 12.0333 13.483 11.7117 12.7999 11.2237C12.1156 10.7349 11.7666 10.1167 11.7666 9.49992C11.7666 8.88309 12.1156 8.26491 12.7999 7.77611C13.483 7.28818 14.4592 6.96659 15.5666 6.96659C16.6741 6.96659 17.6502 7.28818 18.3334 7.77611C19.0177 8.26491 19.3666 8.88309 19.3666 9.49992Z" stroke="#00963D" stroke-width="1.26667"/>
    <path d="M10.5 1.89988V-0.00012207" stroke="#00963D" stroke-width="1.26667"/>
    <path d="M4.16666 6.35786C4.16666 5.29493 5.02833 4.43326 6.09125 4.43326H10.5H14.9087C15.9717 4.43326 16.8333 5.29493 16.8333 6.35786V13.2999C16.8333 16.7977 13.9978 19.6333 10.5 19.6333C7.00219 19.6333 4.16666 16.7977 4.16666 13.2999V6.35786Z" fill="white" stroke="#00963D" stroke-width="1.26667"/>
    <path d="M4.80005 12.6666H16.8334" stroke="#00963D" stroke-width="1.26667"/>
    <circle cx="7.96665" cy="8.23325" r="1.26667" fill="white" stroke="#00963D" stroke-width="1.26667"/>
    <circle cx="13.0334" cy="15.8333" r="0.633333" fill="#00963D"/>
    <circle cx="10.5" cy="15.8333" r="0.633333" fill="#00963D"/>
    <circle cx="7.96671" cy="15.8333" r="0.633333" fill="#00963D"/>
    <circle cx="13.0333" cy="8.23325" r="1.26667" fill="white" stroke="#00963D" stroke-width="1.26667"/>
</svg>