<svg width="491" height="574" viewBox="0 0 491 574" fill="none" xmlns="http://www.w3.org/2000/svg">
    <path d="M266.775 116.569C272.869 116.904 277.069 117.611 277.069 118.426C277.069 119.56 268.896 120.988 258.836 120.988C248.776 120.988 240.643 119.56 240.643 118.426C240.643 117.611 244.816 116.906 250.871 116.569" stroke="#F2F5F8" stroke-width="3" stroke-linecap="round" stroke-linejoin="round"/>
    <path d="M274.445 99.131C273.546 97.6538 273.099 95.9461 273.158 94.218V92.2088C273.153 89.4251 271.481 86.9153 268.913 85.8396C266.346 84.764 263.384 85.3321 261.396 87.2813" stroke="#F2F5F8" stroke-width="3" stroke-linecap="round" stroke-linejoin="round"/>
    <path d="M263.021 92.566C264.254 92.0138 265.352 91.2003 266.239 90.1819C267.975 92.1928 270.5 93.3495 273.156 93.351" stroke="#F2F5F8" stroke-width="3" stroke-linecap="round" stroke-linejoin="round"/>
    <path d="M272.329 93.3138C272.23 95.4303 271.039 97.3435 269.184 98.3673C267.329 99.3911 265.076 99.3787 263.232 98.3346" stroke="#F2F5F8" stroke-width="3" stroke-linecap="round" stroke-linejoin="round"/>
    <path d="M263.021 101.85C266.43 100.837 270.116 101.492 272.967 103.617C275.817 105.743 277.497 109.088 277.5 112.644H267.043" stroke="#F2F5F8" stroke-width="3" stroke-linecap="round" stroke-linejoin="round"/>
    <path fill-rule="evenodd" clip-rule="evenodd" d="M240.5 112.647C240.5 106.428 245.542 101.386 251.761 101.386C257.98 101.386 263.022 106.428 263.022 112.647H240.5Z" stroke="#F2F5F8" stroke-width="3" stroke-linecap="round" stroke-linejoin="round"/>
    <path d="M259.965 99.1311C259.067 97.6538 258.62 95.9462 258.678 94.2181V92.2088C258.781 89.6729 257.486 87.2846 255.306 85.9862C253.125 84.6877 250.408 84.6877 248.228 85.9862C246.047 87.2846 244.752 89.6729 244.855 92.2088V94.2181C244.914 95.9462 244.466 97.6538 243.568 99.1311" stroke="#F2F5F8" stroke-width="3" stroke-linecap="round" stroke-linejoin="round"/>
    <path d="M244.844 93.351C247.501 93.3487 250.025 92.1921 251.762 90.1819C253.498 92.1928 256.023 93.3495 258.679 93.351" stroke="#F2F5F8" stroke-width="3" stroke-linecap="round" stroke-linejoin="round"/>
    <path d="M257.851 93.3137C257.693 96.5626 255.012 99.1153 251.76 99.1153C248.507 99.1153 245.827 96.5626 245.668 93.3137" stroke="#F2F5F8" stroke-width="3" stroke-linecap="round" stroke-linejoin="round"/>
    <path fill-rule="evenodd" clip-rule="evenodd" d="M28.3239 272.125C31.9669 271.508 34.42 268.055 33.8031 264.412C33.1862 260.769 29.7329 258.316 26.0899 258.933C22.4469 259.55 19.9938 263.003 20.6107 266.646C21.2276 270.289 24.6809 272.742 28.3239 272.125Z" stroke="#F2F5F8" stroke-width="3" stroke-linecap="round" stroke-linejoin="round"/>
    <path fill-rule="evenodd" clip-rule="evenodd" d="M40.3992 263.295C42.3602 274.875 33.2989 283.091 31.0519 284.932C30.7471 285.182 30.3329 285.253 29.9628 285.117C27.2345 284.116 15.9747 279.34 14.0143 267.763C12.7805 260.477 17.6867 253.57 24.9727 252.337C32.2587 251.103 39.1654 256.009 40.3992 263.295V263.295Z" stroke="#F2F5F8" stroke-width="3" stroke-linecap="round" stroke-linejoin="round"/>
    <path fill-rule="evenodd" clip-rule="evenodd" d="M437.544 522.023C441.187 521.406 443.64 517.952 443.023 514.309C442.406 510.666 438.953 508.213 435.31 508.83C431.667 509.447 429.213 512.901 429.83 516.544C430.447 520.187 433.901 522.64 437.544 522.023Z" stroke="#F2F5F8" stroke-width="3" stroke-linecap="round" stroke-linejoin="round"/>
    <path fill-rule="evenodd" clip-rule="evenodd" d="M449.619 513.192C451.58 524.772 442.519 532.988 440.272 534.83C439.967 535.08 439.553 535.15 439.183 535.014C436.454 534.014 425.194 529.238 423.234 517.66C422 510.374 426.906 503.468 434.192 502.234C441.478 501 448.385 505.906 449.619 513.192V513.192Z" stroke="#F2F5F8" stroke-width="3" stroke-linecap="round" stroke-linejoin="round"/>
    <path fill-rule="evenodd" clip-rule="evenodd" d="M323 181.421C326.695 181.421 329.69 178.425 329.69 174.731C329.69 171.036 326.695 168.04 323 168.04C319.305 168.04 316.31 171.036 316.31 174.731C316.31 178.425 319.305 181.421 323 181.421Z" stroke="#F2F5F8" stroke-width="3" stroke-linecap="round" stroke-linejoin="round"/>
    <path fill-rule="evenodd" clip-rule="evenodd" d="M336.38 174.731C336.38 186.475 326.074 193.063 323.551 194.504C323.209 194.699 322.789 194.699 322.447 194.504C319.924 193.062 309.62 186.472 309.62 174.731C309.62 167.341 315.61 161.35 323 161.35C330.39 161.35 336.38 167.341 336.38 174.731V174.731Z" stroke="#F2F5F8" stroke-width="3" stroke-linecap="round" stroke-linejoin="round"/>
    <path fill-rule="evenodd" clip-rule="evenodd" d="M136.454 92.3966C137.02 92.2909 137.596 92.5181 137.937 92.9814L149.465 108.63C149.466 108.631 149.467 108.632 149.467 108.633C150.509 110.03 152.369 110.535 153.974 109.857C153.975 109.857 153.976 109.856 153.978 109.856L171.839 102.192C172.368 101.965 172.98 102.061 173.414 102.438C173.849 102.816 174.029 103.408 173.878 103.964L168.682 123.089C168.082 125.297 165.806 126.601 163.598 126.001L132.998 117.687C130.79 117.087 129.486 114.811 130.086 112.603L135.282 93.4778C135.433 92.9225 135.888 92.5024 136.454 92.3966ZM137.363 97.2602L132.981 113.39C132.816 113.999 133.175 114.626 133.784 114.792L164.385 123.106C164.994 123.271 165.621 122.912 165.787 122.303L170.169 106.173L155.147 112.619C152.267 113.838 148.926 112.93 147.059 110.421L147.054 110.415L137.363 97.2602Z" fill="#F2F5F8"/>
    <path fill-rule="evenodd" clip-rule="evenodd" d="M153.501 83.9813C155.087 83.0246 156.996 82.757 158.785 83.2431C160.575 83.7293 162.086 84.9262 162.969 86.5537L173.681 102.743C174.139 103.434 173.949 104.364 173.258 104.822C172.567 105.279 171.637 105.089 171.18 104.398L160.429 88.1512C160.402 88.11 160.377 88.0675 160.354 88.0238C159.864 87.0961 159.011 86.4132 157.999 86.1382C156.986 85.8632 155.905 86.0206 155.013 86.5729C154.971 86.5989 154.928 86.6229 154.884 86.6446L137.39 95.2181C136.646 95.5826 135.747 95.2751 135.383 94.5312C135.018 93.7873 135.326 92.8887 136.07 92.5242L153.501 83.9813Z" fill="#F2F5F8"/>
    <path fill-rule="evenodd" clip-rule="evenodd" d="M157.857 108.202C158.576 107.79 159.492 108.039 159.904 108.758L163.546 115.118C163.958 115.837 163.709 116.754 162.99 117.166C162.271 117.577 161.355 117.328 160.943 116.609L157.3 110.249C156.889 109.53 157.138 108.614 157.857 108.202Z" fill="#F2F5F8"/>
    <path fill-rule="evenodd" clip-rule="evenodd" d="M146.956 105.24C147.368 105.959 147.119 106.876 146.4 107.287L140.04 110.93C139.321 111.342 138.404 111.093 137.993 110.374C137.581 109.655 137.83 108.739 138.549 108.327L144.909 104.684C145.628 104.272 146.545 104.521 146.956 105.24Z" fill="#F2F5F8"/>
    <path fill-rule="evenodd" clip-rule="evenodd" d="M37.3709 352.893C38.077 353.077 38.5097 353.834 38.3374 354.585L36.7984 361.294C36.7079 361.688 36.4611 362.021 36.1219 362.207C35.7827 362.392 35.3844 362.412 35.0303 362.261L31.6214 360.808C30.9468 360.52 30.6191 359.705 30.8895 358.988C31.1599 358.27 31.926 357.922 32.6007 358.209L34.6011 359.062L35.7805 353.921C35.9528 353.17 36.6648 352.71 37.3709 352.893Z" fill="#F2F5F8"/>
    <path fill-rule="evenodd" clip-rule="evenodd" d="M42.3062 365.169C43.0123 365.352 43.445 366.109 43.2727 366.861L41.7337 373.569C41.6433 373.963 41.3964 374.297 41.0572 374.482C40.718 374.668 40.3197 374.688 39.9656 374.537L36.5567 373.083C35.8821 372.796 35.5544 371.981 35.8248 371.263C36.0952 370.546 36.8613 370.197 37.536 370.485L39.5364 371.338L40.7158 366.197C40.8881 365.446 41.6001 364.986 42.3062 365.169Z" fill="#F2F5F8"/>
    <path fill-rule="evenodd" clip-rule="evenodd" d="M39.7106 358.555C39.4248 357.844 39.7348 357.021 40.4031 356.717L44.3825 354.907C45.0507 354.603 45.8242 354.932 46.11 355.643C46.3958 356.354 46.0858 357.177 45.4175 357.481L41.4381 359.291C40.7699 359.595 39.9964 359.265 39.7106 358.555Z" fill="#F2F5F8"/>
    <path fill-rule="evenodd" clip-rule="evenodd" d="M44.8171 371.253C44.5313 370.542 44.8413 369.72 45.5095 369.416L49.4889 367.605C50.1572 367.301 50.9306 367.631 51.2164 368.342C51.5022 369.053 51.1922 369.875 50.524 370.179L46.5445 371.99C45.8763 372.294 45.1029 371.964 44.8171 371.253Z" fill="#F2F5F8"/>
    <path fill-rule="evenodd" clip-rule="evenodd" d="M24.3685 355.52C23.6127 353.641 24.4325 351.465 26.1997 350.661L40.1277 344.325C40.7959 344.021 41.5693 344.351 41.8551 345.061C42.141 345.772 41.8309 346.595 41.1627 346.899L27.2347 353.235C26.804 353.431 26.6043 353.961 26.7885 354.419L37.8517 381.933C38.0359 382.391 38.5343 382.603 38.965 382.407L54.8827 375.166C55.5509 374.862 56.3243 375.191 56.6101 375.902C56.896 376.613 56.5859 377.436 55.9177 377.74L40 384.981C38.2329 385.785 36.1876 384.913 35.4318 383.033L24.3685 355.52Z" fill="#F2F5F8"/>
    <path fill-rule="evenodd" clip-rule="evenodd" d="M47.2443 353.877C46.9585 353.167 47.2685 352.344 47.9368 352.04L53.9059 349.324C54.5741 349.02 55.3476 349.35 55.6334 350.061L62.0155 365.932C62.7713 367.812 61.9514 369.988 60.1843 370.792L58.1946 371.697C56.4275 372.501 54.3822 371.629 53.6264 369.749L47.2443 353.877ZM50.1817 354.064L56.0463 368.648C56.2305 369.106 56.7289 369.319 57.1596 369.123L59.1493 368.218C59.5799 368.022 59.7797 367.491 59.5955 367.033L53.731 352.449L50.1817 354.064Z" fill="#F2F5F8"/>
    <path fill-rule="evenodd" clip-rule="evenodd" d="M50.2353 343.752C49.9495 343.042 50.2595 342.219 50.9277 341.915L52.9174 341.01C54.6846 340.206 56.7298 341.078 57.4856 342.957L61.3158 352.483C61.6016 353.193 61.2916 354.016 60.6234 354.32C59.9551 354.624 59.1817 354.294 58.8959 353.584L55.0657 344.058C54.8815 343.6 54.3831 343.388 53.9525 343.584L51.9628 344.489C51.2945 344.793 50.5211 344.463 50.2353 343.752Z" fill="#F2F5F8"/>
    <path fill-rule="evenodd" clip-rule="evenodd" d="M44.265 346.469C43.5092 344.589 44.329 342.413 46.0962 341.61L48.0859 340.704C49.853 339.9 51.8983 340.772 52.6541 342.652L55.6332 350.061C55.919 350.772 55.609 351.594 54.9408 351.898C54.2725 352.202 53.4991 351.873 53.2133 351.162L50.2342 343.753C50.05 343.295 49.5515 343.082 49.1209 343.278L47.1312 344.184C46.7005 344.379 46.5007 344.91 46.6849 345.368L49.6641 352.776C49.9499 353.487 49.6399 354.31 48.9716 354.614C48.3034 354.918 47.53 354.588 47.2442 353.877L44.265 346.469Z" fill="#F2F5F8"/>
    <path fill-rule="evenodd" clip-rule="evenodd" d="M58.1553 368.67C58.8235 368.365 59.5969 368.695 59.8827 369.406L61.5848 373.639C61.8706 374.35 61.5606 375.172 60.8923 375.476C60.2241 375.78 59.4507 375.451 59.1649 374.74L57.4628 370.507C57.177 369.796 57.487 368.974 58.1553 368.67Z" fill="#F2F5F8"/>
    <path fill-rule="evenodd" clip-rule="evenodd" d="M360.371 454.456C361.077 454.639 361.51 455.396 361.337 456.147L359.798 462.856C359.708 463.25 359.461 463.583 359.122 463.769C358.783 463.955 358.384 463.974 358.03 463.823L354.621 462.37C353.947 462.082 353.619 461.267 353.89 460.55C354.16 459.832 354.926 459.484 355.601 459.771L357.601 460.624L358.78 455.484C358.953 454.733 359.665 454.272 360.371 454.456Z" fill="#F2F5F8"/>
    <path fill-rule="evenodd" clip-rule="evenodd" d="M365.306 466.731C366.012 466.914 366.445 467.672 366.273 468.423L364.734 475.131C364.643 475.526 364.396 475.859 364.057 476.044C363.718 476.23 363.32 476.25 362.966 476.099L359.557 474.646C358.882 474.358 358.554 473.543 358.825 472.825C359.095 472.108 359.861 471.759 360.536 472.047L362.536 472.9L363.716 467.759C363.888 467.008 364.6 466.548 365.306 466.731Z" fill="#F2F5F8"/>
    <path fill-rule="evenodd" clip-rule="evenodd" d="M362.711 460.117C362.425 459.406 362.735 458.583 363.403 458.279L367.383 456.469C368.051 456.165 368.824 456.495 369.11 457.205C369.396 457.916 369.086 458.739 368.418 459.043L364.438 460.853C363.77 461.157 362.996 460.828 362.711 460.117Z" fill="#F2F5F8"/>
    <path fill-rule="evenodd" clip-rule="evenodd" d="M367.817 472.815C367.531 472.105 367.841 471.282 368.51 470.978L372.489 469.168C373.157 468.864 373.931 469.193 374.216 469.904C374.502 470.615 374.192 471.438 373.524 471.742L369.545 473.552C368.876 473.856 368.103 473.526 367.817 472.815Z" fill="#F2F5F8"/>
    <path fill-rule="evenodd" clip-rule="evenodd" d="M347.369 457.083C346.613 455.203 347.433 453.027 349.2 452.224L363.128 445.887C363.796 445.583 364.569 445.913 364.855 446.624C365.141 447.334 364.831 448.157 364.163 448.461L350.235 454.798C349.804 454.993 349.604 455.524 349.788 455.982L360.852 483.495C361.036 483.953 361.534 484.165 361.965 483.969L377.883 476.728C378.551 476.424 379.324 476.754 379.61 477.464C379.896 478.175 379.586 478.998 378.918 479.302L363 486.543C361.233 487.347 359.188 486.475 358.432 484.596L347.369 457.083Z" fill="#F2F5F8"/>
    <path fill-rule="evenodd" clip-rule="evenodd" d="M370.244 455.44C369.959 454.729 370.269 453.906 370.937 453.602L376.906 450.887C377.574 450.583 378.348 450.912 378.633 451.623L385.015 467.495C385.771 469.374 384.951 471.55 383.184 472.354L381.195 473.259C379.427 474.063 377.382 473.191 376.626 471.311L370.244 455.44ZM373.182 455.626L379.046 470.21C379.231 470.668 379.729 470.881 380.16 470.685L382.149 469.78C382.58 469.584 382.78 469.054 382.596 468.596L376.731 454.011L373.182 455.626Z" fill="#F2F5F8"/>
    <path fill-rule="evenodd" clip-rule="evenodd" d="M373.235 445.315C372.949 444.604 373.259 443.781 373.928 443.477L375.917 442.572C377.685 441.768 379.73 442.64 380.486 444.52L384.316 454.045C384.602 454.756 384.292 455.578 383.623 455.882C382.955 456.186 382.182 455.857 381.896 455.146L378.066 445.621C377.882 445.163 377.383 444.95 376.952 445.146L374.963 446.051C374.295 446.355 373.521 446.025 373.235 445.315Z" fill="#F2F5F8"/>
    <path fill-rule="evenodd" clip-rule="evenodd" d="M367.265 448.031C366.509 446.151 367.329 443.976 369.096 443.172L371.086 442.267C372.853 441.463 374.898 442.335 375.654 444.214L378.633 451.623C378.919 452.334 378.609 453.157 377.941 453.461C377.273 453.765 376.499 453.435 376.213 452.724L373.234 445.315C373.05 444.857 372.552 444.645 372.121 444.841L370.131 445.746C369.701 445.942 369.501 446.472 369.685 446.93L372.664 454.339C372.95 455.049 372.64 455.872 371.972 456.176C371.303 456.48 370.53 456.15 370.244 455.44L367.265 448.031Z" fill="#F2F5F8"/>
    <path fill-rule="evenodd" clip-rule="evenodd" d="M381.155 470.232C381.824 469.928 382.597 470.258 382.883 470.968L384.585 475.201C384.871 475.912 384.561 476.735 383.892 477.039C383.224 477.343 382.451 477.013 382.165 476.302L380.463 472.069C380.177 471.358 380.487 470.536 381.155 470.232Z" fill="#F2F5F8"/>
    <path fill-rule="evenodd" clip-rule="evenodd" d="M433.371 389.058C434.077 389.242 434.51 389.999 434.337 390.75L432.798 397.459C432.708 397.853 432.461 398.186 432.122 398.372C431.783 398.557 431.384 398.577 431.03 398.426L427.621 396.973C426.947 396.685 426.619 395.87 426.89 395.153C427.16 394.435 427.926 394.087 428.601 394.374L430.601 395.227L431.78 390.087C431.953 389.335 432.665 388.875 433.371 389.058Z" fill="#F2F5F8"/>
    <path fill-rule="evenodd" clip-rule="evenodd" d="M438.306 401.334C439.012 401.517 439.445 402.275 439.273 403.026L437.734 409.734C437.643 410.129 437.396 410.462 437.057 410.647C436.718 410.833 436.32 410.853 435.966 410.702L432.557 409.248C431.882 408.961 431.554 408.146 431.825 407.428C432.095 406.711 432.861 406.362 433.536 406.65L435.536 407.503L436.716 402.362C436.888 401.611 437.6 401.151 438.306 401.334Z" fill="#F2F5F8"/>
    <path fill-rule="evenodd" clip-rule="evenodd" d="M435.711 394.72C435.425 394.009 435.735 393.186 436.403 392.882L440.383 391.072C441.051 390.768 441.824 391.098 442.11 391.808C442.396 392.519 442.086 393.342 441.418 393.646L437.438 395.456C436.77 395.76 435.996 395.431 435.711 394.72Z" fill="#F2F5F8"/>
    <path fill-rule="evenodd" clip-rule="evenodd" d="M440.817 407.418C440.531 406.708 440.841 405.885 441.51 405.581L445.489 403.77C446.157 403.466 446.931 403.796 447.216 404.507C447.502 405.218 447.192 406.04 446.524 406.344L442.545 408.155C441.876 408.459 441.103 408.129 440.817 407.418Z" fill="#F2F5F8"/>
    <path fill-rule="evenodd" clip-rule="evenodd" d="M420.369 391.685C419.613 389.806 420.433 387.63 422.2 386.826L436.128 380.49C436.796 380.186 437.569 380.516 437.855 381.227C438.141 381.937 437.831 382.76 437.163 383.064L423.235 389.4C422.804 389.596 422.604 390.127 422.788 390.585L433.852 418.098C434.036 418.556 434.534 418.768 434.965 418.572L450.883 411.331C451.551 411.027 452.324 411.356 452.61 412.067C452.896 412.778 452.586 413.601 451.918 413.905L436 421.146C434.233 421.95 432.188 421.078 431.432 419.199L420.369 391.685Z" fill="#F2F5F8"/>
    <path fill-rule="evenodd" clip-rule="evenodd" d="M443.244 390.043C442.959 389.332 443.269 388.509 443.937 388.205L449.906 385.49C450.574 385.186 451.348 385.515 451.633 386.226L458.015 402.098C458.771 403.977 457.951 406.153 456.184 406.957L454.195 407.862C452.427 408.666 450.382 407.794 449.626 405.914L443.244 390.043ZM446.182 390.229L452.046 404.813C452.231 405.271 452.729 405.484 453.16 405.288L455.149 404.383C455.58 404.187 455.78 403.657 455.596 403.199L449.731 388.614L446.182 390.229Z" fill="#F2F5F8"/>
    <path fill-rule="evenodd" clip-rule="evenodd" d="M446.235 379.917C445.949 379.207 446.259 378.384 446.928 378.08L448.917 377.175C450.685 376.371 452.73 377.243 453.486 379.123L457.316 388.648C457.602 389.359 457.292 390.181 456.623 390.485C455.955 390.789 455.182 390.459 454.896 389.749L451.066 380.223C450.882 379.765 450.383 379.553 449.952 379.749L447.963 380.654C447.295 380.958 446.521 380.628 446.235 379.917Z" fill="#F2F5F8"/>
    <path fill-rule="evenodd" clip-rule="evenodd" d="M440.265 382.634C439.509 380.754 440.329 378.579 442.096 377.775L444.086 376.869C445.853 376.066 447.898 376.938 448.654 378.817L451.633 386.226C451.919 386.937 451.609 387.759 450.941 388.063C450.273 388.367 449.499 388.038 449.213 387.327L446.234 379.918C446.05 379.46 445.552 379.248 445.121 379.443L443.131 380.349C442.701 380.545 442.501 381.075 442.685 381.533L445.664 388.942C445.95 389.652 445.64 390.475 444.972 390.779C444.303 391.083 443.53 390.753 443.244 390.043L440.265 382.634Z" fill="#F2F5F8"/>
    <path fill-rule="evenodd" clip-rule="evenodd" d="M454.155 404.835C454.824 404.531 455.597 404.86 455.883 405.571L457.585 409.804C457.871 410.515 457.561 411.337 456.892 411.641C456.224 411.945 455.451 411.616 455.165 410.905L453.463 406.672C453.177 405.961 453.487 405.139 454.155 404.835Z" fill="#F2F5F8"/>
    <path fill-rule="evenodd" clip-rule="evenodd" d="M214.588 172.118C215.28 172.411 215.594 173.223 215.289 173.932L212.562 180.27C212.402 180.642 212.092 180.93 211.713 181.058C211.334 181.186 210.922 181.142 210.585 180.937L207.343 178.968C206.701 178.578 206.505 177.726 206.905 177.065C207.305 176.404 208.149 176.184 208.791 176.574L210.694 177.73L212.783 172.873C213.088 172.164 213.896 171.826 214.588 172.118Z" fill="#F2F5F8"/>
    <path fill-rule="evenodd" clip-rule="evenodd" d="M217.54 184.951C218.232 185.243 218.545 186.056 218.24 186.765L215.514 193.103C215.354 193.475 215.044 193.763 214.665 193.891C214.285 194.019 213.874 193.975 213.537 193.77L210.294 191.8C209.652 191.411 209.456 190.559 209.856 189.898C210.256 189.237 211.101 189.017 211.743 189.407L213.646 190.563L215.735 185.706C216.04 184.997 216.848 184.658 217.54 184.951Z" fill="#F2F5F8"/>
    <path fill-rule="evenodd" clip-rule="evenodd" d="M216.014 178.047C215.843 177.304 216.302 176.546 217.039 176.354L221.425 175.212C222.162 175.02 222.898 175.467 223.069 176.21C223.24 176.953 222.781 177.711 222.044 177.903L217.658 179.045C216.921 179.237 216.185 178.79 216.014 178.047Z" fill="#F2F5F8"/>
    <path fill-rule="evenodd" clip-rule="evenodd" d="M219.069 191.322C218.898 190.579 219.356 189.821 220.093 189.629L224.479 188.487C225.216 188.295 225.952 188.742 226.123 189.485C226.294 190.228 225.835 190.986 225.099 191.178L220.712 192.32C219.975 192.512 219.24 192.065 219.069 191.322Z" fill="#F2F5F8"/>
    <path fill-rule="evenodd" clip-rule="evenodd" d="M200.819 172.623C200.367 170.658 201.579 168.654 203.527 168.147L218.88 164.15C219.617 163.958 220.353 164.405 220.524 165.148C220.695 165.891 220.236 166.649 219.499 166.841L204.146 170.837C203.672 170.961 203.376 171.449 203.486 171.928L210.104 200.69C210.214 201.169 210.689 201.457 211.163 201.334L228.71 196.766C229.446 196.574 230.182 197.021 230.353 197.764C230.524 198.507 230.066 199.265 229.329 199.457L211.782 204.025C209.834 204.532 207.889 203.35 207.437 201.385L200.819 172.623Z" fill="#F2F5F8"/>
    <path fill-rule="evenodd" clip-rule="evenodd" d="M224.533 174.658C224.362 173.915 224.821 173.157 225.558 172.966L232.138 171.253C232.874 171.061 233.61 171.508 233.781 172.251L237.599 188.843C238.051 190.808 236.838 192.812 234.89 193.319L232.697 193.89C230.749 194.397 228.803 193.215 228.351 191.25L224.533 174.658ZM227.511 175.309L231.019 190.556C231.129 191.035 231.603 191.323 232.078 191.199L234.271 190.628C234.746 190.505 235.041 190.016 234.931 189.538L231.423 174.291L227.511 175.309Z" fill="#F2F5F8"/>
    <path fill-rule="evenodd" clip-rule="evenodd" d="M229.332 165.2C229.161 164.457 229.62 163.699 230.356 163.507L232.55 162.936C234.498 162.429 236.443 163.611 236.896 165.576L239.187 175.533C239.358 176.276 238.899 177.034 238.163 177.226C237.426 177.418 236.69 176.971 236.519 176.228L234.228 166.27C234.118 165.791 233.644 165.503 233.169 165.627L230.976 166.198C230.239 166.39 229.503 165.943 229.332 165.2Z" fill="#F2F5F8"/>
    <path fill-rule="evenodd" clip-rule="evenodd" d="M222.751 166.913C222.299 164.948 223.511 162.944 225.459 162.437L227.653 161.866C229.601 161.359 231.546 162.541 231.998 164.506L233.781 172.251C233.952 172.994 233.493 173.752 232.756 173.943C232.02 174.135 231.284 173.688 231.113 172.945L229.331 165.2C229.221 164.721 228.747 164.433 228.272 164.557L226.079 165.128C225.604 165.251 225.308 165.74 225.419 166.218L227.201 173.964C227.372 174.707 226.913 175.465 226.176 175.656C225.44 175.848 224.704 175.401 224.533 174.658L222.751 166.913Z" fill="#F2F5F8"/>
    <path fill-rule="evenodd" clip-rule="evenodd" d="M233.175 190.913C233.912 190.721 234.648 191.168 234.819 191.911L235.837 196.336C236.008 197.079 235.549 197.837 234.813 198.029C234.076 198.221 233.34 197.774 233.169 197.031L232.151 192.606C231.98 191.863 232.439 191.105 233.175 190.913Z" fill="#F2F5F8"/>
    <path d="M128.818 200.354L128.945 204.195C128.98 205.256 128.148 206.144 127.087 206.179L105.003 206.905C103.412 206.958 102.08 205.71 102.028 204.119L101.333 182.995C101.28 181.404 102.527 180.072 104.118 180.02L124.283 179.356C124.792 179.34 125.287 179.526 125.659 179.874C126.031 180.222 126.249 180.704 126.266 181.214L126.361 184.094" stroke="#F2F5F8" stroke-width="3" stroke-linecap="round" stroke-linejoin="round"/>
    <path fill-rule="evenodd" clip-rule="evenodd" d="M128.818 200.354C129.879 200.32 130.711 199.431 130.676 198.371L130.486 192.61C130.451 191.549 129.563 190.718 128.503 190.752L123.702 190.91C121.05 190.998 118.971 193.218 119.059 195.869C119.146 198.521 121.366 200.6 124.018 200.512L128.818 200.354Z" stroke="#F2F5F8" stroke-width="3" stroke-linecap="round" stroke-linejoin="round"/>
    <path d="M123.844 195.231C124.109 195.222 124.331 195.43 124.34 195.695C124.348 195.961 124.14 196.183 123.875 196.191C123.61 196.2 123.388 195.992 123.379 195.727C123.371 195.462 123.578 195.24 123.844 195.231" stroke="#F2F5F8" stroke-width="3" stroke-linecap="round" stroke-linejoin="round"/>
    <path d="M128.502 190.752L128.344 185.951C128.309 184.891 127.421 184.059 126.361 184.094L107.637 184.71C106.788 184.778 105.973 184.361 105.533 183.632" stroke="#F2F5F8" stroke-width="3" stroke-linecap="round" stroke-linejoin="round"/>
    <path d="M244.818 122.354L244.945 126.195C244.98 127.255 244.148 128.143 243.087 128.178L221.003 128.905C219.412 128.957 218.08 127.71 218.028 126.119L217.333 104.995C217.28 103.404 218.527 102.072 220.118 102.019L240.283 101.356C240.792 101.339 241.287 101.525 241.659 101.874C242.031 102.222 242.249 102.704 242.266 103.213L242.361 106.094" stroke="#F2F5F8" stroke-width="3" stroke-linecap="round" stroke-linejoin="round"/>
    <path fill-rule="evenodd" clip-rule="evenodd" d="M244.818 122.354C245.879 122.319 246.711 121.431 246.676 120.371L246.486 114.609C246.451 113.549 245.563 112.717 244.503 112.752L239.702 112.91C237.05 112.997 234.971 115.217 235.059 117.869C235.146 120.52 237.366 122.599 240.018 122.512L244.818 122.354Z" stroke="#F2F5F8" stroke-width="3" stroke-linecap="round" stroke-linejoin="round"/>
    <path d="M239.844 117.231C240.109 117.222 240.331 117.43 240.34 117.695C240.348 117.96 240.14 118.182 239.875 118.191C239.61 118.2 239.388 117.992 239.379 117.727C239.371 117.462 239.578 117.24 239.844 117.231" stroke="#F2F5F8" stroke-width="3" stroke-linecap="round" stroke-linejoin="round"/>
    <path d="M244.502 112.752L244.344 107.951C244.309 106.89 243.421 106.059 242.361 106.094L223.637 106.71C222.788 106.778 221.973 106.361 221.533 105.632" stroke="#F2F5F8" stroke-width="3" stroke-linecap="round" stroke-linejoin="round"/>
    <path fill-rule="evenodd" clip-rule="evenodd" d="M23.4606 181.676L9.74938 174.53C7.43933 173.246 6.57162 170.356 7.79214 168.012C9.01267 165.667 11.8778 164.721 14.2547 165.877L22.9761 170.421L30.184 149.946C31.078 147.403 33.8646 146.066 36.408 146.96C38.9514 147.854 40.2885 150.64 39.3944 153.184L30.3203 178.968C29.8502 180.303 28.8243 181.368 27.5082 181.887C26.1921 182.407 24.7154 182.33 23.4606 181.676Z" stroke="#F2F5F8" stroke-width="3" stroke-linejoin="round"/>
    <path fill-rule="evenodd" clip-rule="evenodd" d="M139.461 103.676L125.749 96.53C123.439 95.2457 122.572 92.3558 123.792 90.0114C125.013 87.667 127.878 86.7204 130.255 87.8763L138.976 92.4208L146.184 71.9457C147.078 69.4023 149.865 68.0653 152.408 68.9593C154.951 69.8534 156.288 72.64 155.394 75.1834L146.32 100.968C145.85 102.303 144.824 103.368 143.508 103.887C142.192 104.407 140.715 104.33 139.461 103.676Z" stroke="#F2F5F8" stroke-width="3" stroke-linejoin="round"/>
    <path fill-rule="evenodd" clip-rule="evenodd" d="M244.867 272.036L238.575 257.913C237.565 255.471 238.683 252.668 241.097 251.591C243.51 250.515 246.343 251.556 247.485 253.939L251.488 262.922L269.867 251.372C272.149 249.937 275.162 250.623 276.598 252.905C278.033 255.187 277.347 258.201 275.065 259.636L251.922 274.183C250.724 274.935 249.258 275.131 247.905 274.719C246.551 274.308 245.443 273.329 244.867 272.036Z" stroke="#F2F5F8" stroke-width="3" stroke-linejoin="round"/>
    <path fill-rule="evenodd" clip-rule="evenodd" d="M360.867 194.036L354.575 179.912C353.565 177.47 354.683 174.667 357.097 173.591C359.51 172.514 362.343 173.555 363.485 175.938L367.488 184.921L385.867 173.372C388.149 171.936 391.162 172.623 392.598 174.905C394.033 177.187 393.347 180.2 391.065 181.636L367.922 196.182C366.724 196.935 365.258 197.131 363.905 196.719C362.551 196.307 361.443 195.328 360.867 194.036Z" stroke="#F2F5F8" stroke-width="3" stroke-linejoin="round"/>
    <path fill-rule="evenodd" clip-rule="evenodd" d="M61.1807 82.4961C61.013 82.4155 60.8204 82.4036 60.6441 82.463L43.3419 88.2802C42.9685 88.4057 42.7676 88.8101 42.8931 89.1835L50.4326 111.608C50.5581 111.982 50.9625 112.183 51.3359 112.057L72.0357 105.098C72.4091 104.972 72.61 104.568 72.4844 104.194L66.0597 85.0849C66.0597 85.0849 66.0597 85.085 66.0597 85.0849C65.9984 84.9027 65.8661 84.7529 65.6928 84.6696L61.1807 82.4961C61.1808 82.4961 61.1806 82.496 61.1807 82.4961ZM59.9381 80.3652C60.6619 80.1216 61.4523 80.1706 62.1405 80.5017L66.6521 82.6749C67.3632 83.0169 67.9061 83.6315 68.1576 84.3794L74.5824 103.489C75.0975 105.021 74.2731 106.68 72.7411 107.195L52.0412 114.155C50.5092 114.67 48.8497 113.846 48.3346 112.314L40.7952 89.8888C40.2801 88.3568 41.1045 86.6973 42.6365 86.1822L59.9381 80.3652C59.9382 80.3652 59.938 80.3653 59.9381 80.3652Z" fill="#F2F5F8"/>
    <path fill-rule="evenodd" clip-rule="evenodd" d="M50.7855 95.276C49.7131 92.0864 51.4295 88.6313 54.6192 87.5588C57.8089 86.4864 61.264 88.2028 62.3364 91.3925C63.4088 94.5822 61.6924 98.0373 58.5027 99.1097C55.313 100.182 51.8579 98.4657 50.7855 95.276ZM55.3245 89.6568C53.2935 90.3397 52.2006 92.5397 52.8835 94.5707C53.5663 96.6017 55.7663 97.6946 57.7974 97.0118C59.8284 96.3289 60.9213 94.1289 60.2384 92.0979C59.5556 90.0669 57.3556 88.974 55.3245 89.6568Z" fill="#F2F5F8"/>
    <path fill-rule="evenodd" clip-rule="evenodd" d="M51.5509 107.203C52.1662 103.406 54.8331 100.263 58.4784 99.0373C62.1237 97.8117 66.1479 98.7055 68.9317 101.359C69.3741 101.781 69.3909 102.481 68.9692 102.924C68.5475 103.366 67.847 103.383 67.4046 102.961C65.2153 100.874 62.0505 100.171 59.1837 101.135C56.3169 102.099 54.2196 104.571 53.7357 107.557C53.6379 108.16 53.0695 108.57 52.4662 108.472C51.8629 108.374 51.4531 107.806 51.5509 107.203Z" fill="#F2F5F8"/>
    <path fill-rule="evenodd" clip-rule="evenodd" d="M76.1807 462.275C76.013 462.194 75.8204 462.182 75.6441 462.242L58.3419 468.059C57.9685 468.185 57.7676 468.589 57.8931 468.962L65.4326 491.387C65.5581 491.761 65.9625 491.961 66.3359 491.836L87.0357 484.876C87.4091 484.751 87.61 484.346 87.4844 483.973L81.0597 464.864C81.0597 464.864 81.0597 464.864 81.0597 464.864C80.9984 464.682 80.8661 464.532 80.6928 464.448L76.1807 462.275C76.1808 462.275 76.1806 462.275 76.1807 462.275ZM74.9381 460.144C75.6619 459.9 76.4523 459.949 77.1405 460.281L81.6521 462.454C82.3632 462.796 82.9061 463.41 83.1576 464.158L89.5824 483.268C90.0975 484.8 89.2731 486.459 87.7411 486.974L67.0412 493.934C65.5092 494.449 63.8497 493.625 63.3346 492.093L55.7952 469.668C55.2801 468.136 56.1045 466.476 57.6365 465.961L74.9381 460.144C74.9382 460.144 74.938 460.144 74.9381 460.144Z" fill="#F2F5F8"/>
    <path fill-rule="evenodd" clip-rule="evenodd" d="M65.7855 475.055C64.7131 471.865 66.4295 468.41 69.6192 467.338C72.8089 466.265 76.264 467.982 77.3364 471.171C78.4088 474.361 76.6924 477.816 73.5027 478.889C70.313 479.961 66.8579 478.245 65.7855 475.055ZM70.3245 469.436C68.2935 470.119 67.2006 472.319 67.8835 474.35C68.5663 476.381 70.7663 477.473 72.7974 476.791C74.8284 476.108 75.9213 473.908 75.2384 471.877C74.5556 469.846 72.3556 468.753 70.3245 469.436Z" fill="#F2F5F8"/>
    <path fill-rule="evenodd" clip-rule="evenodd" d="M66.5509 486.981C67.1662 483.185 69.8331 480.042 73.4784 478.816C77.1237 477.591 81.1479 478.484 83.9317 481.138C84.3741 481.56 84.3909 482.26 83.9692 482.702C83.5475 483.145 82.847 483.162 82.4046 482.74C80.2153 480.653 77.0505 479.95 74.1837 480.914C71.3169 481.878 69.2196 484.35 68.7357 487.336C68.6379 487.939 68.0695 488.349 67.4662 488.251C66.8629 488.153 66.4531 487.585 66.5509 486.981Z" fill="#F2F5F8"/>
    <path fill-rule="evenodd" clip-rule="evenodd" d="M177.181 4.49595C177.013 4.41535 176.82 4.40348 176.644 4.46288L159.342 10.2801C158.969 10.4056 158.768 10.81 158.893 11.1834L166.433 33.6082C166.558 33.9815 166.963 34.1824 167.336 34.0569L188.036 27.0974C188.409 26.9719 188.61 26.5675 188.484 26.1941L182.06 7.08481C182.06 7.08478 182.06 7.08485 182.06 7.08481C181.998 6.9026 181.866 6.75275 181.693 6.66943L177.181 4.49595C177.181 4.49599 177.181 4.49591 177.181 4.49595ZM175.938 2.36512C176.662 2.1215 177.452 2.17044 178.14 2.50153L182.652 4.67475C183.363 5.01673 183.906 5.63136 184.158 6.37925L190.582 25.4887C191.097 27.0208 190.273 28.6803 188.741 29.1953L168.041 36.1549C166.509 36.6699 164.85 35.8455 164.335 34.3135L156.795 11.8887C156.28 10.3567 157.104 8.69719 158.637 8.18211L175.938 2.36512C175.938 2.36509 175.938 2.36515 175.938 2.36512Z" fill="#F2F5F8"/>
    <path fill-rule="evenodd" clip-rule="evenodd" d="M166.786 17.2759C165.713 14.0862 167.43 10.6311 170.619 9.55872C173.809 8.48632 177.264 10.2027 178.336 13.3924C179.409 16.5821 177.692 20.0372 174.503 21.1096C171.313 22.182 167.858 20.4656 166.786 17.2759ZM171.325 11.6567C169.294 12.3395 168.201 14.5396 168.883 16.5706C169.566 18.6016 171.766 19.6945 173.797 19.0116C175.828 18.3288 176.921 16.1288 176.238 14.0978C175.556 12.0667 173.356 10.9738 171.325 11.6567Z" fill="#F2F5F8"/>
    <path fill-rule="evenodd" clip-rule="evenodd" d="M167.551 29.2025C168.166 25.4062 170.833 22.2628 174.478 21.0372C178.124 19.8116 182.148 20.7054 184.932 23.3589C185.374 23.7806 185.391 24.4811 184.969 24.9235C184.548 25.3659 183.847 25.3827 183.405 24.961C181.215 22.8742 178.051 22.1713 175.184 23.1351C172.317 24.099 170.22 26.5711 169.736 29.5566C169.638 30.1599 169.07 30.5698 168.466 30.472C167.863 30.3742 167.453 29.8058 167.551 29.2025Z" fill="#F2F5F8"/>
    <path fill-rule="evenodd" clip-rule="evenodd" d="M329.308 350.124C329.208 349.94 329.04 349.803 328.84 349.741L309.221 343.657C308.797 343.526 308.348 343.763 308.217 344.186L300.332 369.614C300.201 370.038 300.438 370.487 300.861 370.619L324.333 377.897C324.757 378.028 325.206 377.791 325.337 377.368L332.056 355.699C332.056 355.699 332.056 355.699 332.056 355.699C332.12 355.492 332.098 355.269 331.995 355.078L329.308 350.124C329.308 350.124 329.308 350.124 329.308 350.124ZM329.577 347.362C330.398 347.616 331.087 348.181 331.497 348.936L334.184 353.89C334.607 354.67 334.698 355.588 334.435 356.436L327.716 378.105C327.178 379.843 325.333 380.814 323.596 380.276L300.123 372.998C298.386 372.459 297.414 370.614 297.953 368.877L305.838 343.448C306.376 341.711 308.221 340.74 309.958 341.278L329.577 347.362C329.577 347.362 329.577 347.361 329.577 347.362Z" fill="#F2F5F8"/>
    <path fill-rule="evenodd" clip-rule="evenodd" d="M311.408 354.943C312.529 351.326 316.37 349.303 319.987 350.424C323.604 351.546 325.627 355.387 324.506 359.004C323.384 362.621 319.543 364.644 315.926 363.522C312.309 362.401 310.286 358.559 311.408 354.943ZM319.25 352.803C316.947 352.089 314.501 353.377 313.787 355.68C313.072 357.983 314.361 360.429 316.664 361.143C318.967 361.857 321.412 360.569 322.127 358.266C322.841 355.963 321.553 353.517 319.25 352.803Z" fill="#F2F5F8"/>
    <path fill-rule="evenodd" clip-rule="evenodd" d="M304.253 366.33C307.314 363.271 311.818 362.158 315.951 363.44C320.085 364.722 323.169 368.187 323.962 372.441C324.088 373.117 323.642 373.768 322.966 373.894C322.29 374.02 321.64 373.574 321.514 372.898C320.89 369.552 318.464 366.827 315.214 365.819C311.963 364.811 308.421 365.686 306.014 368.092C305.527 368.578 304.739 368.578 304.253 368.091C303.767 367.605 303.767 366.816 304.253 366.33Z" fill="#F2F5F8"/>
    <path fill-rule="evenodd" clip-rule="evenodd" d="M445.308 272.124C445.208 271.94 445.04 271.803 444.84 271.741L425.221 265.657C424.797 265.526 424.348 265.763 424.217 266.186L416.332 291.615C416.201 292.038 416.438 292.488 416.861 292.619L440.333 299.897C440.757 300.028 441.206 299.791 441.337 299.368L448.056 277.699C448.056 277.699 448.056 277.699 448.056 277.699C448.12 277.493 448.098 277.269 447.995 277.079L445.308 272.124C445.308 272.124 445.308 272.124 445.308 272.124ZM445.577 269.362C446.398 269.616 447.087 270.181 447.497 270.936L450.184 275.89C450.607 276.67 450.698 277.589 450.435 278.437L443.716 300.106C443.178 301.843 441.333 302.814 439.596 302.276L416.123 294.998C414.386 294.459 413.414 292.614 413.953 290.877L421.838 265.449C422.376 263.712 424.221 262.74 425.958 263.279L445.577 269.362C445.577 269.362 445.577 269.362 445.577 269.362Z" fill="#F2F5F8"/>
    <path fill-rule="evenodd" clip-rule="evenodd" d="M427.408 276.943C428.529 273.326 432.37 271.303 435.987 272.424C439.604 273.546 441.627 277.387 440.506 281.004C439.384 284.621 435.543 286.644 431.926 285.522C428.309 284.401 426.286 280.56 427.408 276.943ZM435.25 274.803C432.947 274.089 430.501 275.377 429.787 277.68C429.072 279.983 430.361 282.429 432.664 283.143C434.967 283.858 437.412 282.569 438.127 280.266C438.841 277.963 437.553 275.517 435.25 274.803Z" fill="#F2F5F8"/>
    <path fill-rule="evenodd" clip-rule="evenodd" d="M420.253 288.33C423.314 285.271 427.818 284.159 431.951 285.44C436.085 286.722 439.169 290.187 439.962 294.442C440.088 295.118 439.642 295.768 438.966 295.894C438.29 296.02 437.64 295.574 437.514 294.898C436.89 291.552 434.464 288.827 431.214 287.819C427.963 286.811 424.421 287.686 422.014 290.092C421.527 290.578 420.739 290.578 420.253 290.092C419.767 289.605 419.767 288.817 420.253 288.33Z" fill="#F2F5F8"/>
    <path d="M97.1306 284.006C97.7286 281.233 99.5958 278.901 102.172 277.712C104.748 276.523 107.733 276.614 110.232 277.958" stroke="#F2F5F8" stroke-width="3" stroke-linecap="round" stroke-linejoin="round"/>
    <path fill-rule="evenodd" clip-rule="evenodd" d="M108.703 273.912C111.336 274.477 113.928 272.801 114.494 270.168C115.059 267.535 113.383 264.943 110.75 264.378C108.117 263.813 105.524 265.489 104.959 268.122C104.394 270.755 106.07 273.347 108.703 273.912Z" stroke="#F2F5F8" stroke-width="3" stroke-linecap="round" stroke-linejoin="round"/>
    <path fill-rule="evenodd" clip-rule="evenodd" d="M115.678 293.113C119.466 293.926 123.196 291.514 124.01 287.726C124.823 283.938 122.411 280.207 118.622 279.394C114.834 278.581 111.104 280.993 110.29 284.781C109.477 288.569 111.889 292.3 115.678 293.113Z" stroke="#F2F5F8" stroke-width="3" stroke-linecap="round" stroke-linejoin="round"/>
    <path d="M124.846 298.156L120.959 292.145" stroke="#F2F5F8" stroke-width="3" stroke-linecap="round" stroke-linejoin="round"/>
    <path d="M213.131 206.006C213.729 203.232 215.596 200.901 218.172 199.712C220.748 198.523 223.733 198.614 226.232 199.958" stroke="#F2F5F8" stroke-width="3" stroke-linecap="round" stroke-linejoin="round"/>
    <path fill-rule="evenodd" clip-rule="evenodd" d="M224.703 195.912C227.336 196.477 229.928 194.801 230.494 192.168C231.059 189.535 229.383 186.943 226.75 186.378C224.117 185.812 221.524 187.489 220.959 190.121C220.394 192.754 222.07 195.347 224.703 195.912Z" stroke="#F2F5F8" stroke-width="3" stroke-linecap="round" stroke-linejoin="round"/>
    <path fill-rule="evenodd" clip-rule="evenodd" d="M231.678 215.113C235.466 215.926 239.196 213.514 240.01 209.726C240.823 205.937 238.411 202.207 234.622 201.394C230.834 200.58 227.104 202.992 226.29 206.781C225.477 210.569 227.889 214.3 231.678 215.113Z" stroke="#F2F5F8" stroke-width="3" stroke-linecap="round" stroke-linejoin="round"/>
    <path d="M240.846 220.156L236.959 214.144" stroke="#F2F5F8" stroke-width="3" stroke-linecap="round" stroke-linejoin="round"/>
    <path d="M340.26 117.708C339.155 114.964 339.404 111.86 340.934 109.327C342.463 106.794 345.094 105.128 348.037 104.828" stroke="#F2F5F8" stroke-width="3" stroke-linecap="round" stroke-linejoin="round"/>
    <path fill-rule="evenodd" clip-rule="evenodd" d="M344.352 102.229C346.955 101.178 348.214 98.215 347.163 95.6114C346.112 93.0077 343.15 91.749 340.546 92.8C337.942 93.8509 336.684 96.8136 337.734 99.4172C338.785 102.021 341.748 103.28 344.352 102.229Z" stroke="#F2F5F8" stroke-width="3" stroke-linecap="round" stroke-linejoin="round"/>
    <path fill-rule="evenodd" clip-rule="evenodd" d="M361.597 114.731C365.343 113.218 367.154 108.955 365.642 105.209C364.13 101.463 359.867 99.6515 356.121 101.164C352.374 102.676 350.563 106.939 352.075 110.685C353.587 114.432 357.85 116.243 361.597 114.731Z" stroke="#F2F5F8" stroke-width="3" stroke-linecap="round" stroke-linejoin="round"/>
    <path d="M372.461 113.726L365.591 110.807" stroke="#F2F5F8" stroke-width="3" stroke-linecap="round" stroke-linejoin="round"/>
    <path d="M456.26 39.7082C455.155 36.9638 455.404 33.8596 456.934 31.3269C458.463 28.7943 461.094 27.1279 464.037 26.8276" stroke="#F2F5F8" stroke-width="3" stroke-linecap="round" stroke-linejoin="round"/>
    <path fill-rule="evenodd" clip-rule="evenodd" d="M460.352 24.2285C462.955 23.1776 464.214 20.2149 463.163 17.6112C462.112 15.0076 459.15 13.7489 456.546 14.7998C453.942 15.8508 452.684 18.8134 453.734 21.4171C454.785 24.0208 457.748 25.2795 460.352 24.2285Z" stroke="#F2F5F8" stroke-width="3" stroke-linecap="round" stroke-linejoin="round"/>
    <path fill-rule="evenodd" clip-rule="evenodd" d="M477.597 36.7305C481.343 35.2182 483.154 30.9553 481.642 27.2089C480.13 23.4626 475.867 21.6514 472.121 23.1636C468.374 24.6758 466.563 28.9388 468.075 32.6851C469.587 36.4315 473.85 38.2427 477.597 36.7305Z" stroke="#F2F5F8" stroke-width="3" stroke-linecap="round" stroke-linejoin="round"/>
    <path d="M488.461 35.726L481.591 32.8073" stroke="#F2F5F8" stroke-width="3" stroke-linecap="round" stroke-linejoin="round"/>
    <path d="M307.26 561.135C306.155 558.391 306.404 555.287 307.934 552.754C309.463 550.221 312.094 548.555 315.037 548.255" stroke="#F2F5F8" stroke-width="3" stroke-linecap="round" stroke-linejoin="round"/>
    <path fill-rule="evenodd" clip-rule="evenodd" d="M311.352 545.656C313.955 544.605 315.214 541.642 314.163 539.038C313.112 536.435 310.15 535.176 307.546 536.227C304.942 537.278 303.684 540.241 304.734 542.844C305.785 545.448 308.748 546.707 311.352 545.656Z" stroke="#F2F5F8" stroke-width="3" stroke-linecap="round" stroke-linejoin="round"/>
    <path fill-rule="evenodd" clip-rule="evenodd" d="M328.597 558.157C332.343 556.645 334.154 552.382 332.642 548.636C331.13 544.89 326.867 543.078 323.121 544.591C319.374 546.103 317.563 550.366 319.075 554.112C320.587 557.859 324.85 559.67 328.597 558.157Z" stroke="#F2F5F8" stroke-width="3" stroke-linecap="round" stroke-linejoin="round"/>
    <path d="M339.461 557.153L332.591 554.234" stroke="#F2F5F8" stroke-width="3" stroke-linecap="round" stroke-linejoin="round"/>
    <path d="M102.277 532.512C104.549 530.618 107.58 529.902 110.46 530.579C113.34 531.257 115.734 533.249 116.923 535.958" stroke="#F2F5F8" stroke-width="3" stroke-linecap="round" stroke-linejoin="round"/>
    <path fill-rule="evenodd" clip-rule="evenodd" d="M118.265 531.652C120.065 533.808 123.271 534.096 125.426 532.296C127.581 530.496 127.869 527.29 126.069 525.135C124.27 522.98 121.064 522.692 118.908 524.492C116.753 526.291 116.465 529.497 118.265 531.652Z" stroke="#F2F5F8" stroke-width="3" stroke-linecap="round" stroke-linejoin="round"/>
    <path fill-rule="evenodd" clip-rule="evenodd" d="M111.663 551.904C114.253 555.004 118.866 555.419 121.967 552.829C125.068 550.24 125.482 545.627 122.893 542.526C120.303 539.425 115.69 539.01 112.589 541.6C109.488 544.189 109.074 548.803 111.663 551.904Z" stroke="#F2F5F8" stroke-width="3" stroke-linecap="round" stroke-linejoin="round"/>
    <path d="M115.956 561.934L116.624 554.5" stroke="#F2F5F8" stroke-width="3" stroke-linecap="round" stroke-linejoin="round"/>
    <path d="M324.719 284.19L323.067 280.444C322.459 279.064 323.084 277.453 324.463 276.845L346.939 266.933C348.318 266.325 349.929 266.95 350.538 268.329L352.19 272.075" stroke="#F2F5F8" stroke-width="3" stroke-linecap="round" stroke-linejoin="round"/>
    <path fill-rule="evenodd" clip-rule="evenodd" d="M330.762 260.675C333.527 259.455 334.781 256.225 333.561 253.459C332.342 250.693 329.111 249.44 326.345 250.66C323.58 251.879 322.326 255.11 323.546 257.876C324.766 260.641 327.996 261.895 330.762 260.675Z" stroke="#F2F5F8" stroke-width="3" stroke-linecap="round" stroke-linejoin="round"/>
    <path d="M323.546 257.875C323.546 257.875 326.306 264.135 322.55 265.791" stroke="#F2F5F8" stroke-width="3" stroke-linecap="round" stroke-linejoin="round"/>
    <path d="M333.561 253.459C333.561 253.459 336.321 259.718 340.077 258.062" stroke="#F2F5F8" stroke-width="3" stroke-linecap="round" stroke-linejoin="round"/>
    <path d="M342.973 265.699C340.95 263.327 337.954 262.143 334.969 262.373C333.914 262.454 334.135 265.604 333.126 266.049C332.117 266.494 329.94 264.207 329.168 264.931C326.986 266.98 325.839 269.99 326.226 273.084" stroke="#F2F5F8" stroke-width="3" stroke-linecap="round" stroke-linejoin="round"/>
    <path d="M440.719 206.189L439.067 202.443C438.459 201.064 439.084 199.453 440.463 198.845L462.939 188.933C464.318 188.325 465.929 188.95 466.538 190.329L468.19 194.075" stroke="#F2F5F8" stroke-width="3" stroke-linecap="round" stroke-linejoin="round"/>
    <path fill-rule="evenodd" clip-rule="evenodd" d="M446.762 182.675C449.527 181.455 450.781 178.224 449.561 175.459C448.342 172.693 445.111 171.44 442.345 172.659C439.58 173.879 438.326 177.11 439.546 179.875C440.766 182.641 443.996 183.894 446.762 182.675Z" stroke="#F2F5F8" stroke-width="3" stroke-linecap="round" stroke-linejoin="round"/>
    <path d="M439.546 179.875C439.546 179.875 442.306 186.135 438.55 187.791" stroke="#F2F5F8" stroke-width="3" stroke-linecap="round" stroke-linejoin="round"/>
    <path d="M449.561 175.458C449.561 175.458 452.321 181.718 456.077 180.062" stroke="#F2F5F8" stroke-width="3" stroke-linecap="round" stroke-linejoin="round"/>
    <path d="M458.973 187.699C456.95 185.326 453.954 184.143 450.969 184.373C449.914 184.454 450.135 187.604 449.126 188.049C448.117 188.494 445.94 186.206 445.168 186.931C442.986 188.979 441.839 191.99 442.226 195.084" stroke="#F2F5F8" stroke-width="3" stroke-linecap="round" stroke-linejoin="round"/>
    <path fill-rule="evenodd" clip-rule="evenodd" d="M241.526 336.488C244.182 336.488 246.336 334.335 246.336 331.678C246.336 329.022 244.182 326.869 241.526 326.869C238.87 326.869 236.716 329.022 236.716 331.678C236.716 334.335 238.87 336.488 241.526 336.488Z" stroke="#F2F5F8" stroke-width="3" stroke-linecap="round" stroke-linejoin="round"/>
    <path fill-rule="evenodd" clip-rule="evenodd" d="M247.538 348.512V344.904C247.538 341.584 244.846 338.892 241.525 338.892C238.205 338.892 235.513 341.584 235.513 344.904V348.512H237.918L239.121 358.131H243.93L245.133 348.512H247.538Z" stroke="#F2F5F8" stroke-width="3" stroke-linecap="round" stroke-linejoin="round"/>
    <path d="M228.551 338.465V345.98L222.855 347.721L217.159 345.98V338.465" stroke="#F2F5F8" stroke-width="3" stroke-linecap="round" stroke-linejoin="round"/>
    <path fill-rule="evenodd" clip-rule="evenodd" d="M234.247 336.329L222.855 332.057L211.462 336.329L222.855 340.601L234.247 336.329Z" stroke="#F2F5F8" stroke-width="3" stroke-linecap="round" stroke-linejoin="round"/>
    <path d="M211.462 336.329V342.025" stroke="#F2F5F8" stroke-width="3" stroke-linecap="round" stroke-linejoin="round"/>
    <path fill-rule="evenodd" clip-rule="evenodd" d="M357.526 258.488C360.182 258.488 362.336 256.335 362.336 253.679C362.336 251.022 360.182 248.869 357.526 248.869C354.87 248.869 352.716 251.022 352.716 253.679C352.716 256.335 354.87 258.488 357.526 258.488Z" stroke="#F2F5F8" stroke-width="3" stroke-linecap="round" stroke-linejoin="round"/>
    <path fill-rule="evenodd" clip-rule="evenodd" d="M363.538 270.512V266.905C363.538 263.584 360.846 260.893 357.525 260.893C354.205 260.893 351.513 263.584 351.513 266.905V270.512H353.918L355.121 280.131H359.93L361.133 270.512H363.538Z" stroke="#F2F5F8" stroke-width="3" stroke-linecap="round" stroke-linejoin="round"/>
    <path d="M344.551 260.465V267.98L338.855 269.721L333.159 267.98V260.465" stroke="#F2F5F8" stroke-width="3" stroke-linecap="round" stroke-linejoin="round"/>
    <path fill-rule="evenodd" clip-rule="evenodd" d="M350.247 258.329L338.855 254.057L327.462 258.329L338.855 262.601L350.247 258.329Z" stroke="#F2F5F8" stroke-width="3" stroke-linecap="round" stroke-linejoin="round"/>
    <path d="M327.462 258.329V264.025" stroke="#F2F5F8" stroke-width="3" stroke-linecap="round" stroke-linejoin="round"/>
    <path fill-rule="evenodd" clip-rule="evenodd" d="M119.477 399.897C119.858 399.438 120.452 399.251 121.006 399.415L139.726 404.976C139.727 404.977 139.728 404.977 139.73 404.977C141.41 405.465 143.187 404.67 144.034 403.051C144.035 403.05 144.035 403.048 144.036 403.047L153.387 384.924C153.664 384.387 154.205 384.066 154.78 384.098C155.355 384.13 155.862 384.508 156.085 385.073L163.771 404.503C164.658 406.746 163.668 409.33 161.559 410.274L132.331 423.354C130.222 424.298 127.793 423.245 126.906 421.002L119.22 401.571C118.997 401.007 119.097 400.356 119.477 399.897ZM123.189 403.377L129.671 419.764C129.916 420.383 130.586 420.673 131.168 420.413L160.396 407.332C160.977 407.072 161.25 406.359 161.006 405.741L154.524 389.354L146.659 404.596C145.141 407.505 141.95 408.933 138.933 408.054L138.926 408.052L123.189 403.377Z" fill="#F2F5F8"/>
    <path fill-rule="evenodd" clip-rule="evenodd" d="M127.724 381.677C128.384 379.837 129.723 378.362 131.432 377.597C133.142 376.832 135.069 376.845 136.768 377.63L155.178 384.178C155.964 384.458 156.388 385.362 156.125 386.197C155.862 387.033 155.012 387.484 154.227 387.204L135.75 380.633C135.704 380.616 135.657 380.597 135.612 380.575C134.655 380.119 133.563 380.105 132.596 380.538C131.629 380.971 130.874 381.811 130.512 382.858C130.495 382.907 130.475 382.956 130.454 383.003L121.952 401.648C121.591 402.441 120.694 402.772 119.948 402.388C119.203 402.003 118.892 401.049 119.253 400.256L127.724 381.677Z" fill="#F2F5F8"/>
    <path fill-rule="evenodd" clip-rule="evenodd" d="M146.073 399.12C146.386 398.304 147.262 397.912 148.029 398.245L154.816 401.188C155.583 401.521 155.951 402.452 155.639 403.268C155.326 404.084 154.45 404.476 153.683 404.143L146.896 401.2C146.129 400.867 145.761 399.936 146.073 399.12Z" fill="#F2F5F8"/>
    <path fill-rule="evenodd" clip-rule="evenodd" d="M135.662 403.779C136.429 404.112 136.797 405.043 136.485 405.859L133.717 413.078C133.405 413.894 132.529 414.286 131.762 413.954C130.995 413.621 130.627 412.69 130.939 411.874L133.707 404.654C134.019 403.838 134.895 403.447 135.662 403.779Z" fill="#F2F5F8"/>
    <path fill-rule="evenodd" clip-rule="evenodd" d="M235.477 316.931C235.858 316.472 236.452 316.285 237.006 316.449L255.726 322.01C255.727 322.01 255.728 322.011 255.73 322.011C257.41 322.499 259.187 321.704 260.034 320.085C260.035 320.083 260.035 320.082 260.036 320.081L269.387 301.958C269.664 301.421 270.205 301.1 270.78 301.132C271.355 301.164 271.862 301.542 272.085 302.106L279.771 321.537C280.658 323.78 279.668 326.364 277.559 327.307L248.331 340.388C246.222 341.332 243.793 340.278 242.906 338.035L235.22 318.605C234.997 318.04 235.097 317.39 235.477 316.931ZM239.189 320.411L245.671 336.798C245.916 337.417 246.586 337.707 247.168 337.447L276.396 324.366C276.977 324.106 277.25 323.393 277.006 322.775L270.524 306.388L262.659 321.63C261.141 324.539 257.95 325.967 254.933 325.088L254.926 325.086L239.189 320.411Z" fill="#F2F5F8"/>
    <path fill-rule="evenodd" clip-rule="evenodd" d="M243.724 298.711C244.384 296.871 245.723 295.396 247.432 294.631C249.142 293.866 251.069 293.879 252.768 294.664L271.178 301.212C271.964 301.492 272.388 302.396 272.125 303.231C271.862 304.067 271.012 304.518 270.227 304.238L251.75 297.667C251.704 297.65 251.657 297.631 251.612 297.609C250.655 297.153 249.563 297.139 248.596 297.572C247.629 298.005 246.874 298.845 246.512 299.892C246.495 299.941 246.475 299.99 246.454 300.037L237.952 318.682C237.591 319.475 236.694 319.806 235.948 319.422C235.203 319.037 234.892 318.083 235.253 317.29L243.724 298.711Z" fill="#F2F5F8"/>
    <path fill-rule="evenodd" clip-rule="evenodd" d="M262.073 316.154C262.386 315.338 263.262 314.946 264.029 315.279L270.816 318.222C271.583 318.555 271.951 319.486 271.639 320.302C271.326 321.118 270.45 321.51 269.683 321.177L262.896 318.234C262.129 317.901 261.761 316.97 262.073 316.154Z" fill="#F2F5F8"/>
    <path fill-rule="evenodd" clip-rule="evenodd" d="M251.662 320.813C252.429 321.146 252.797 322.077 252.485 322.893L249.717 330.112C249.405 330.928 248.529 331.32 247.762 330.987C246.995 330.655 246.627 329.724 246.939 328.908L249.707 321.688C250.019 320.872 250.895 320.481 251.662 320.813Z" fill="#F2F5F8"/>
</svg>
