<svg xmlns="http://www.w3.org/2000/svg" width="20" height="20" viewBox="0 0 20 20" fill="none">
    <path d="M19.9837 9.6644C19.9886 9.49597 19.8896 9.34601 19.7345 9.28678L0.890695 2.10906C0.746055 2.05447 0.579524 2.08885 0.462161 2.19753C0.344797 2.30621 0.297325 2.47001 0.340001 2.61902L2.03246 8.47281C2.05295 8.55162 2.11947 8.60837 2.20096 8.61656L12.9127 9.54664C13.0174 9.55437 13.0957 9.64078 13.0936 9.74613C13.0914 9.85149 13.0095 9.94118 12.9044 9.95318L2.14576 11.3214C2.06431 11.3317 1.99491 11.3895 1.9696 11.4682L0.0366993 17.396C-0.01072 17.5414 0.025178 17.698 0.12999 17.8027L0.140738 17.8135C0.25362 17.9176 0.418815 17.9454 0.565851 17.885L19.7167 10.0479C19.8737 9.98369 19.9795 9.83171 19.9837 9.6644Z" fill="#FF5252"/>
</svg>